<svg width="22" height="28" viewBox="0 0 22 28" fill="none" xmlns="http://www.w3.org/2000/svg">
<path d="M11.0025 7.09165C7.88098 7.09165 5.36319 10.204 5.36319 14.0626C5.36319 17.9212 7.88098 21.0336 11.0025 21.0336C14.1239 21.0336 16.6417 17.9212 16.6417 14.0626C16.6417 10.204 14.1239 7.09165 11.0025 7.09165ZM11.0025 18.5947C8.98528 18.5947 7.3362 16.5622 7.3362 14.0626C7.3362 11.563 8.98037 9.53058 11.0025 9.53058C13.0245 9.53058 14.6687 11.563 14.6687 14.0626C14.6687 16.5622 13.0196 18.5947 11.0025 18.5947ZM18.1877 6.8065C18.1877 7.71048 17.5988 8.43246 16.8724 8.43246C16.1411 8.43246 15.5571 7.70442 15.5571 6.8065C15.5571 5.90859 16.146 5.18055 16.8724 5.18055C17.5988 5.18055 18.1877 5.90859 18.1877 6.8065ZM21.9227 8.45672C21.8393 6.27868 21.4368 4.34937 20.146 2.75982C18.8601 1.17027 17.2994 0.672778 15.5374 0.563573C13.7215 0.436166 8.27853 0.436166 6.46258 0.563573C4.70552 0.666711 3.14479 1.1642 1.85399 2.75376C0.56319 4.34331 0.165644 6.27261 0.0773006 8.45066C-0.0257669 10.6954 -0.0257669 17.4237 0.0773006 19.6685C0.160736 21.8466 0.56319 23.7759 1.85399 25.3654C3.14479 26.955 4.70061 27.4525 6.46258 27.5617C8.27853 27.6891 13.7215 27.6891 15.5374 27.5617C17.2994 27.4585 18.8601 26.961 20.146 25.3654C21.4319 23.7759 21.8344 21.8466 21.9227 19.6685C22.0258 17.4237 22.0258 10.7015 21.9227 8.45672ZM19.5767 22.0771C19.1939 23.2662 18.4528 24.1824 17.4859 24.6616C16.038 25.3715 12.6025 25.2077 11.0025 25.2077C9.40245 25.2077 5.96196 25.3654 4.51902 24.6616C3.55705 24.1884 2.81595 23.2723 2.42822 22.0771C1.85399 20.2874 1.9865 16.0405 1.9865 14.0626C1.9865 12.0848 1.8589 7.83182 2.42822 6.04813C2.81104 4.859 3.55215 3.94288 4.51902 3.46359C5.96687 2.75376 9.40245 2.91756 11.0025 2.91756C12.6025 2.91756 16.0429 2.75982 17.4859 3.46359C18.4479 3.93682 19.189 4.85293 19.5767 6.04813C20.1509 7.83789 20.0184 12.0848 20.0184 14.0626C20.0184 16.0405 20.1509 20.2934 19.5767 22.0771Z" fill="white"/>
</svg>
