<svg width="22" height="23" viewBox="0 0 22 23" fill="none" xmlns="http://www.w3.org/2000/svg">
<path d="M19.7386 5.96961C19.7525 6.21112 19.7525 6.45269 19.7525 6.6942C19.7525 14.0607 15.2158 22.5486 6.92386 22.5486C4.36928 22.5486 1.9962 21.6342 0 20.0471C0.362957 20.0988 0.711907 20.1161 1.08883 20.1161C3.19666 20.1161 5.13705 19.2363 6.68655 17.7354C4.70431 17.6836 3.04314 16.0792 2.47079 13.8709C2.75 13.9227 3.02917 13.9572 3.32235 13.9572C3.72716 13.9572 4.13201 13.8881 4.50889 13.7674C2.4429 13.2498 0.893364 11.0071 0.893364 8.29861V8.22962C1.4936 8.64367 2.19162 8.90244 2.93142 8.93691C1.71695 7.93628 0.921294 6.22838 0.921294 4.29616C0.921294 3.26108 1.1446 2.31223 1.53549 1.48414C3.75504 4.86548 7.09136 7.07367 10.8324 7.31524C10.7627 6.9012 10.7208 6.46994 10.7208 6.03864C10.7208 2.96779 12.7309 0.466309 15.2296 0.466309C16.5279 0.466309 17.7004 1.13913 18.5241 2.22599C19.5431 1.98448 20.5202 1.51865 21.3857 0.880354C21.0507 2.17427 20.3388 3.26113 19.4035 3.95115C20.3109 3.83045 21.1903 3.51985 21.9999 3.0886C21.3858 4.19267 20.618 5.17598 19.7386 5.96961Z" fill="white"/>
</svg>
